<mxfile host="app.diagrams.net" agent="Mozilla/5.0 (Windows NT 10.0; Win64; x64) AppleWebKit/537.36 (KHTML, like Gecko) Chrome/128.0.0.0 Safari/537.36" version="24.7.12">
  <diagram name="Página-1" id="aClFV1OdkYOG36_X_-Rv">
    <mxGraphModel dx="989" dy="514" grid="1" gridSize="10" guides="1" tooltips="1" connect="1" arrows="1" fold="1" page="1" pageScale="1" pageWidth="3300" pageHeight="4681" math="0" shadow="0">
      <root>
        <mxCell id="0" />
        <mxCell id="1" parent="0" />
        <mxCell id="2W_74EeL-CfWkf3riFF9-2" value="Interface de Usuário" style="html=1;dropTarget=0;whiteSpace=wrap;" vertex="1" parent="1">
          <mxGeometry x="320" y="110" width="160" height="70" as="geometry" />
        </mxCell>
        <mxCell id="2W_74EeL-CfWkf3riFF9-3" value="" style="shape=module;jettyWidth=8;jettyHeight=4;" vertex="1" parent="2W_74EeL-CfWkf3riFF9-2">
          <mxGeometry x="1" width="20" height="20" relative="1" as="geometry">
            <mxPoint x="-27" y="7" as="offset" />
          </mxGeometry>
        </mxCell>
        <mxCell id="2W_74EeL-CfWkf3riFF9-4" value="Gerenciar Inscrições" style="html=1;dropTarget=0;whiteSpace=wrap;" vertex="1" parent="1">
          <mxGeometry x="110" y="270" width="150" height="70" as="geometry" />
        </mxCell>
        <mxCell id="2W_74EeL-CfWkf3riFF9-5" value="" style="shape=module;jettyWidth=8;jettyHeight=4;" vertex="1" parent="2W_74EeL-CfWkf3riFF9-4">
          <mxGeometry x="1" width="20" height="20" relative="1" as="geometry">
            <mxPoint x="-27" y="7" as="offset" />
          </mxGeometry>
        </mxCell>
        <mxCell id="2W_74EeL-CfWkf3riFF9-6" value="Gerenciar Alocação" style="html=1;dropTarget=0;whiteSpace=wrap;" vertex="1" parent="1">
          <mxGeometry x="320" y="320" width="150" height="70" as="geometry" />
        </mxCell>
        <mxCell id="2W_74EeL-CfWkf3riFF9-7" value="" style="shape=module;jettyWidth=8;jettyHeight=4;" vertex="1" parent="2W_74EeL-CfWkf3riFF9-6">
          <mxGeometry x="1" width="20" height="20" relative="1" as="geometry">
            <mxPoint x="-27" y="7" as="offset" />
          </mxGeometry>
        </mxCell>
        <mxCell id="2W_74EeL-CfWkf3riFF9-8" value="Gerar Relatórios" style="html=1;dropTarget=0;whiteSpace=wrap;" vertex="1" parent="1">
          <mxGeometry x="520" y="270" width="150" height="70" as="geometry" />
        </mxCell>
        <mxCell id="2W_74EeL-CfWkf3riFF9-9" value="" style="shape=module;jettyWidth=8;jettyHeight=4;" vertex="1" parent="2W_74EeL-CfWkf3riFF9-8">
          <mxGeometry x="1" width="20" height="20" relative="1" as="geometry">
            <mxPoint x="-27" y="7" as="offset" />
          </mxGeometry>
        </mxCell>
        <mxCell id="2W_74EeL-CfWkf3riFF9-13" value="" style="ellipse;whiteSpace=wrap;html=1;align=center;aspect=fixed;fillColor=none;strokeColor=none;resizable=0;perimeter=centerPerimeter;rotatable=0;allowArrows=0;points=[];outlineConnect=1;" vertex="1" parent="1">
          <mxGeometry x="290" y="130" width="10" height="10" as="geometry" />
        </mxCell>
        <mxCell id="2W_74EeL-CfWkf3riFF9-15" value="" style="shape=providedRequiredInterface;html=1;verticalLabelPosition=bottom;sketch=0;rotation=-45;" vertex="1" parent="1">
          <mxGeometry x="230" y="200" width="20" height="20" as="geometry" />
        </mxCell>
        <mxCell id="2W_74EeL-CfWkf3riFF9-16" style="rounded=0;orthogonalLoop=1;jettySize=auto;html=1;entryX=1;entryY=0.5;entryDx=0;entryDy=0;entryPerimeter=0;endArrow=none;endFill=0;exitX=0;exitY=0.429;exitDx=0;exitDy=0;exitPerimeter=0;" edge="1" parent="1" source="2W_74EeL-CfWkf3riFF9-2" target="2W_74EeL-CfWkf3riFF9-15">
          <mxGeometry relative="1" as="geometry" />
        </mxCell>
        <mxCell id="2W_74EeL-CfWkf3riFF9-17" style="rounded=0;orthogonalLoop=1;jettySize=auto;html=1;entryX=0;entryY=0.5;entryDx=0;entryDy=0;entryPerimeter=0;endArrow=none;endFill=0;exitX=0.439;exitY=0.012;exitDx=0;exitDy=0;exitPerimeter=0;" edge="1" parent="1" source="2W_74EeL-CfWkf3riFF9-4" target="2W_74EeL-CfWkf3riFF9-15">
          <mxGeometry relative="1" as="geometry" />
        </mxCell>
        <mxCell id="2W_74EeL-CfWkf3riFF9-30" value="" style="shape=providedRequiredInterface;html=1;verticalLabelPosition=bottom;sketch=0;rotation=-90;" vertex="1" parent="1">
          <mxGeometry x="390" y="210" width="20" height="20" as="geometry" />
        </mxCell>
        <mxCell id="2W_74EeL-CfWkf3riFF9-31" value="" style="endArrow=none;html=1;rounded=0;entryX=0;entryY=0.5;entryDx=0;entryDy=0;entryPerimeter=0;exitX=0.533;exitY=-0.033;exitDx=0;exitDy=0;exitPerimeter=0;" edge="1" parent="1" source="2W_74EeL-CfWkf3riFF9-6" target="2W_74EeL-CfWkf3riFF9-30">
          <mxGeometry width="50" height="50" relative="1" as="geometry">
            <mxPoint x="400" y="270" as="sourcePoint" />
            <mxPoint x="450" y="220" as="targetPoint" />
          </mxGeometry>
        </mxCell>
        <mxCell id="2W_74EeL-CfWkf3riFF9-32" value="" style="endArrow=none;html=1;rounded=0;" edge="1" parent="1">
          <mxGeometry width="50" height="50" relative="1" as="geometry">
            <mxPoint x="399.8" y="210" as="sourcePoint" />
            <mxPoint x="400" y="180" as="targetPoint" />
          </mxGeometry>
        </mxCell>
        <mxCell id="2W_74EeL-CfWkf3riFF9-33" style="rounded=0;orthogonalLoop=1;jettySize=auto;html=1;endArrow=none;endFill=0;exitX=1;exitY=0.5;exitDx=0;exitDy=0;exitPerimeter=0;" edge="1" parent="1" source="2W_74EeL-CfWkf3riFF9-39">
          <mxGeometry relative="1" as="geometry">
            <mxPoint x="560" y="210" as="sourcePoint" />
            <mxPoint x="480" y="140" as="targetPoint" />
          </mxGeometry>
        </mxCell>
        <mxCell id="2W_74EeL-CfWkf3riFF9-37" style="rounded=0;orthogonalLoop=1;jettySize=auto;html=1;entryX=1;entryY=0.5;entryDx=0;entryDy=0;entryPerimeter=0;endArrow=none;endFill=0;exitX=0.75;exitY=0;exitDx=0;exitDy=0;" edge="1" parent="1" source="2W_74EeL-CfWkf3riFF9-8">
          <mxGeometry relative="1" as="geometry">
            <mxPoint x="588" y="274" as="sourcePoint" />
            <mxPoint x="567.0710678118653" y="217.07106781186542" as="targetPoint" />
          </mxGeometry>
        </mxCell>
        <mxCell id="2W_74EeL-CfWkf3riFF9-39" value="" style="shape=providedRequiredInterface;html=1;verticalLabelPosition=bottom;sketch=0;rotation=-140;" vertex="1" parent="1">
          <mxGeometry x="550" y="200" width="20" height="20" as="geometry" />
        </mxCell>
        <mxCell id="2W_74EeL-CfWkf3riFF9-46" value="Módulo de Inscrições" style="html=1;dropTarget=0;whiteSpace=wrap;" vertex="1" parent="1">
          <mxGeometry x="40" y="125" width="170" height="40" as="geometry" />
        </mxCell>
        <mxCell id="2W_74EeL-CfWkf3riFF9-47" value="" style="shape=module;jettyWidth=8;jettyHeight=4;" vertex="1" parent="2W_74EeL-CfWkf3riFF9-46">
          <mxGeometry x="1" width="20" height="20" relative="1" as="geometry">
            <mxPoint x="-27" y="7" as="offset" />
          </mxGeometry>
        </mxCell>
        <mxCell id="2W_74EeL-CfWkf3riFF9-50" value="Módulo de Relatório" style="html=1;dropTarget=0;whiteSpace=wrap;" vertex="1" parent="1">
          <mxGeometry x="630" y="130" width="170" height="40" as="geometry" />
        </mxCell>
        <mxCell id="2W_74EeL-CfWkf3riFF9-51" value="" style="shape=module;jettyWidth=8;jettyHeight=4;" vertex="1" parent="2W_74EeL-CfWkf3riFF9-50">
          <mxGeometry x="1" width="20" height="20" relative="1" as="geometry">
            <mxPoint x="-27" y="7" as="offset" />
          </mxGeometry>
        </mxCell>
        <mxCell id="2W_74EeL-CfWkf3riFF9-53" value="" style="endArrow=open;dashed=1;html=1;rounded=0;entryX=-0.01;entryY=0.883;entryDx=0;entryDy=0;entryPerimeter=0;endFill=0;" edge="1" parent="1" target="2W_74EeL-CfWkf3riFF9-50">
          <mxGeometry width="50" height="50" relative="1" as="geometry">
            <mxPoint x="570" y="210" as="sourcePoint" />
            <mxPoint x="620" y="160" as="targetPoint" />
          </mxGeometry>
        </mxCell>
        <mxCell id="2W_74EeL-CfWkf3riFF9-54" value="" style="endArrow=open;dashed=1;html=1;rounded=0;endFill=0;" edge="1" parent="1" target="2W_74EeL-CfWkf3riFF9-46">
          <mxGeometry width="50" height="50" relative="1" as="geometry">
            <mxPoint x="230" y="200" as="sourcePoint" />
            <mxPoint x="288" y="155" as="targetPoint" />
          </mxGeometry>
        </mxCell>
        <mxCell id="2W_74EeL-CfWkf3riFF9-55" value="Módulo de Relatório" style="html=1;dropTarget=0;whiteSpace=wrap;" vertex="1" parent="1">
          <mxGeometry x="520" y="420" width="170" height="40" as="geometry" />
        </mxCell>
        <mxCell id="2W_74EeL-CfWkf3riFF9-56" value="" style="shape=module;jettyWidth=8;jettyHeight=4;" vertex="1" parent="2W_74EeL-CfWkf3riFF9-55">
          <mxGeometry x="1" width="20" height="20" relative="1" as="geometry">
            <mxPoint x="-27" y="7" as="offset" />
          </mxGeometry>
        </mxCell>
        <mxCell id="2W_74EeL-CfWkf3riFF9-57" value="" style="endArrow=open;dashed=1;html=1;rounded=0;endFill=0;exitX=0.269;exitY=0.809;exitDx=0;exitDy=0;exitPerimeter=0;entryX=0.118;entryY=0;entryDx=0;entryDy=0;entryPerimeter=0;" edge="1" parent="1" source="2W_74EeL-CfWkf3riFF9-30" target="2W_74EeL-CfWkf3riFF9-55">
          <mxGeometry width="50" height="50" relative="1" as="geometry">
            <mxPoint x="507" y="295" as="sourcePoint" />
            <mxPoint x="440" y="260" as="targetPoint" />
          </mxGeometry>
        </mxCell>
      </root>
    </mxGraphModel>
  </diagram>
</mxfile>
